<svg xmlns="http://www.w3.org/2000/svg" height="24px" viewBox="0 -960 960 960" width="24px" fill="currentColor"><path d="M480.05-126.15q-73.36 0-137.82-27.96-64.47-27.96-112.41-75.81t-75.8-112.26q-27.87-64.41-27.87-137.77 0-73.36 27.96-137.82 27.96-64.47 75.81-112.41t112.26-75.8q64.41-27.87 137.77-27.87 73.36 0 137.82 27.96 64.47 27.96 112.41 75.81t75.8 112.26q27.87 64.41 27.87 137.77 0 73.36-27.96 137.82-27.96 64.47-75.81 112.41t-112.26 75.8q-64.41 27.87-137.77 27.87Zm183.64-428.31 69.39-22.52 19.07-68.56q-31.38-51.34-79.85-87.67-48.46-36.33-108.76-53.41l-64.77 45.54v70.62l164.92 116Zm-367.29 0 165.45-116v-70.57l-65.58-45.59q-59.96 17-107.73 53.37t-79.16 87.53l19.08 68.64 67.94 22.62Zm-53 286.77 63.77-5.54L346.31-338l-58.93-178.92-72.16-24.62-52.14 37.8q0 70.05 16.92 125.74t63.4 110.31Zm288.52 100.23q26.54-4.39 55.16-13.16l34.15-73.84-35.32-58.46H374l-33.69 58.46 34.15 73.84q26.31 8.77 53.23 13.16 26.93 4.38 52.31 4.38 25.38 0 51.92-4.38Zm-149-182.39h196.31l58.46-177.84L480-638.31 322.77-527.78l60.15 177.93Zm333.73 82.16Q763.08-322.31 780-378q16.92-55.69 16.92-125.74l-50.61-35.8-73.69 21.08-58.93 180.28 39.23 64.95 63.73 5.54Z"/></svg>