<svg xmlns="http://www.w3.org/2000/svg" height="24px" viewBox="0 -960 960 960" width="24px" fill="currentColor"><path d="M477.54-559.38h184.61v-36.93H477.54v36.93Zm0 195.69h184.61v-36.93H477.54v36.93Zm-82.52-180.27q14.1-13.93 14.1-33.6T395-611.33q-14.12-14.09-33.79-14.09t-33.58 14.11q-13.9 14.12-13.9 33.79t13.93 33.58q13.92 13.9 33.59 13.9t33.77-13.92Zm0 195.07q14.1-13.92 14.1-33.59T395-416.25q-14.12-14.1-33.79-14.1t-33.58 14.12q-13.9 14.12-13.9 33.79t13.93 33.57q13.92 13.91 33.59 13.91t33.77-13.93ZM226.89-165.54q-25.75 0-43.55-17.8-17.8-17.8-17.8-43.55v-506.22q0-25.75 17.8-43.55 17.8-17.8 43.55-17.8h506.22q25.75 0 43.55 17.8 17.8 17.8 17.8 43.55v506.22q0 25.75-17.8 43.55-17.8 17.8-43.55 17.8H226.89Zm.19-36.92h505.84q9.23 0 16.93-7.69 7.69-7.7 7.69-16.93v-505.84q0-9.23-7.69-16.93-7.7-7.69-16.93-7.69H227.08q-9.23 0-16.93 7.69-7.69 7.7-7.69 16.93v505.84q0 9.23 7.69 16.93 7.7 7.69 16.93 7.69Zm-24.62-555.08V-202.46-757.54Z"/></svg>